<!DOCTYPE svg PUBLIC "-//W3C//DTD SVG 1.1//EN" "http://www.w3.org/Graphics/SVG/1.1/DTD/svg11.dtd">
<!-- Uploaded to: SVG Repo, www.svgrepo.com, Transformed by: SVG Repo Mixer Tools -->
<svg width="800px" height="800px" viewBox="-2.4 -2.4 28.80 28.80" fill="none" xmlns="http://www.w3.org/2000/svg" stroke="#EEEEEE" stroke-width="0.00024000000000000003">
<g id="SVGRepo_bgCarrier" stroke-width="0" transform="translate(0,0), scale(1)">
<path transform="translate(-2.4, -2.4), scale(1.7999999999999998)" fill="#2FA084" d="M9.166.33a2.25 2.25 0 00-2.332 0l-5.25 3.182A2.25 2.25 0 00.5 5.436v5.128a2.25 2.25 0 001.084 1.924l5.25 3.182a2.25 2.25 0 002.332 0l5.25-3.182a2.25 2.25 0 001.084-1.924V5.436a2.25 2.25 0 00-1.084-1.924L9.166.33z" strokewidth="0"/>
</g>
<g id="SVGRepo_tracerCarrier" stroke-linecap="round" stroke-linejoin="round" stroke="#CCCCCC" stroke-width="0.048"/>
<g id="SVGRepo_iconCarrier"> <path d="M16.8311 15.6402C17.5011 15.2002 18.3811 15.6802 18.3811 16.4802V17.7702C18.3811 19.0402 17.3911 20.4002 16.2011 20.8002L13.0111 21.8602C12.4511 22.0502 11.5411 22.0502 10.9911 21.8602L7.80109 20.8002C6.60109 20.4002 5.62109 19.0402 5.62109 17.7702V16.4702C5.62109 15.6802 6.50109 15.2002 7.16109 15.6302L9.22109 16.9702C10.0111 17.5002 11.0111 17.7602 12.0111 17.7602C13.0111 17.7602 14.0111 17.5002 14.8011 16.9702L16.8311 15.6402Z" fill="#fcfcfc"/> <path d="M19.9795 6.45859L13.9895 2.52859C12.9095 1.81859 11.1295 1.81859 10.0495 2.52859L4.02953 6.45859C2.09953 7.70859 2.09953 10.5386 4.02953 11.7986L5.62953 12.8386L10.0495 15.7186C11.1295 16.4286 12.9095 16.4286 13.9895 15.7186L18.3795 12.8386L19.7495 11.9386V14.9986C19.7495 15.4086 20.0895 15.7486 20.4995 15.7486C20.9095 15.7486 21.2495 15.4086 21.2495 14.9986V10.0786C21.6495 8.78859 21.2395 7.28859 19.9795 6.45859Z" fill="#fcfcfc"/> </g>
</svg>